{
  "source": "C:\\Users\\Peter\\Desktop\\stuff\\MIUN\\quantitative_research\\video_compression\\videos\\UVG\\Bosphorus_1920x1080_120fps_420_8bit_YUV.y4m",
  "output": "C:\\Users\\Peter\\Desktop\\stuff\\MIUN\\quantitative_research\\video_compression\\compressed_videos\\UVG\\vp9\\1\\Bosphorus_1920x1080_120fps_420_8bit_YUV_vp9.webm",
  "codec": "vp9",
  "ok": "[yuv4mpegpipe @ 000001e3d7625280] Stream #0: not enough frames to estimate rate; consider increasing probesize\nInput #0, yuv4mpegpipe, from 'C:\\Users\\Peter\\Desktop\\stuff\\MIUN\\quantitative_research\\video_compression\\videos\\UVG\\Bosphorus_1920x1080_120fps_420_8bit_YUV.y4m':\n  Duration: 00:00:05.00, start: 0.000000, bitrate: 2985989 kb/s\n  Stream #0:0: Video: rawvideo (I420 / 0x30323449), yuv420p(progressive), 1920x1080, 120 fps, 120 tbr, 120 tbn\n[out#0/webm @ 000001e3d7628e00] Codec AVOption b:a (set bitrate (in bits/s)) has not been used for any stream. The most likely reason is either wrong type (e.g. a video option with no video streams) or that it is a private option of some decoder which was not actually used for any stream.\nStream mapping:\n  Stream #0:0 -> #0:0 (rawvideo (native) -> vp9 (libvpx-vp9))\nPress [q] to stop, [?] for help\n[libvpx-vp9 @ 000001e3d762bf80] v1.15.2-100-g40561f514\nOutput #0, webm, to 'C:\\Users\\Peter\\Desktop\\stuff\\MIUN\\quantitative_research\\video_compression\\compressed_videos\\UVG\\vp9\\1\\Bosphorus_1920x1080_120fps_420_8bit_YUV_vp9.webm':\n  Metadata:\n    encoder         : Lavf62.3.100\n  Stream #0:0: Video: vp9, yuv420p(tv, progressive), 1920x1080, q=2-31, 1000 kb/s, 120 fps, 1k tbn\n    Metadata:\n      encoder         : Lavc62.11.100 libvpx-vp9\n    Side data:\n      cpb: bitrate max/min/avg: 0/0/0 buffer size: 1000000 vbv_delay: N/A\nframe=    0 fps=0.0 q=0.0 size=       0KiB time=N/A bitrate=N/A speed=N/A elapsed=0:00:00.51    \nframe=    0 fps=0.0 q=0.0 size=       0KiB time=N/A bitrate=N/A speed=N/A elapsed=0:00:01.04    \nframe=    4 fps=2.5 q=63.0 size=       0KiB time=00:00:00.03 bitrate= 115.4kbits/s speed=0.0206x elapsed=0:00:01.61    \nframe=    7 fps=3.1 q=54.0 size=       0KiB time=00:00:00.05 bitrate=  66.0kbits/s speed=0.0256x elapsed=0:00:02.28    \nframe=   10 fps=3.4 q=60.0 size=       0KiB time=00:00:00.07 bitrate=  51.3kbits/s speed=0.0255x elapsed=0:00:02.94    \nframe=   12 fps=3.3 q=57.0 size=       0KiB time=00:00:00.10 bitrate=  38.5kbits/s speed=0.0272x elapsed=0:00:03.67    \nframe=   15 fps=3.6 q=53.0 size=       0KiB time=00:00:00.12 bitrate=  30.8kbits/s speed=0.0297x elapsed=0:00:04.20    \nframe=   17 fps=3.4 q=60.0 size=       0KiB time=00:00:00.14 bitrate=  27.2kbits/s speed=0.0286x elapsed=0:00:04.95    \nframe=   20 fps=3.6 q=53.0 size=       0KiB time=00:00:00.15 bitrate=  24.3kbits/s speed=0.0283x elapsed=0:00:05.60    \nframe=   22 fps=3.5 q=54.0 size=       0KiB time=00:00:00.18 bitrate=  21.0kbits/s speed=0.0288x elapsed=0:00:06.37    \nframe=   24 fps=3.4 q=55.0 size=       0KiB time=00:00:00.20 bitrate=  19.2kbits/s speed=0.0282x elapsed=0:00:07.09    \nframe=   27 fps=3.5 q=55.0 size=       0KiB time=00:00:00.21 bitrate=  17.8kbits/s speed=0.0279x elapsed=0:00:07.76    \nframe=   29 fps=3.4 q=55.0 size=       0KiB time=00:00:00.24 bitrate=  15.9kbits/s speed=0.0285x elapsed=0:00:08.48    \nframe=   31 fps=3.4 q=49.0 size=       0KiB time=00:00:00.25 bitrate=  15.4kbits/s speed=0.0276x elapsed=0:00:09.05    \nframe=   34 fps=3.5 q=53.0 size=       0KiB time=00:00:00.27 bitrate=  14.0kbits/s speed=0.0282x elapsed=0:00:09.76    \nframe=   37 fps=3.5 q=53.0 size=       0KiB time=00:00:00.30 bitrate=  12.8kbits/s speed=0.0283x elapsed=0:00:10.58    \nframe=   40 fps=3.5 q=57.0 size=       0KiB time=00:00:00.32 bitrate=  11.8kbits/s speed=0.0286x elapsed=0:00:11.37    \nframe=   42 fps=3.4 q=58.0 size=       0KiB time=00:00:00.35 bitrate=  11.0kbits/s speed=0.0287x elapsed=0:00:12.21    \nframe=   45 fps=3.5 q=54.0 size=       0KiB time=00:00:00.37 bitrate=  10.3kbits/s speed=0.0291x elapsed=0:00:12.87    \nframe=   48 fps=3.5 q=50.0 size=       0KiB time=00:00:00.39 bitrate=   9.8kbits/s speed=0.0287x elapsed=0:00:13.65    \nframe=   51 fps=3.5 q=52.0 size=       0KiB time=00:00:00.41 bitrate=   9.2kbits/s speed=0.0288x elapsed=0:00:14.48    \nframe=   54 fps=3.5 q=51.0 size=       0KiB time=00:00:00.44 bitrate=   8.7kbits/s speed=0.029x elapsed=0:00:15.21    \nframe=   57 fps=3.5 q=56.0 size=       0KiB time=00:00:00.46 bitrate=   8.2kbits/s speed=0.029x elapsed=0:00:16.09    \nframe=   59 fps=3.5 q=56.0 size=       0KiB time=00:00:00.49 bitrate=   7.8kbits/s speed=0.0292x elapsed=0:00:16.83    \nframe=   60 fps=3.4 q=51.0 size=       0KiB time=00:00:00.50 bitrate=   7.7kbits/s speed=0.0285x elapsed=0:00:17.56    \nframe=   62 fps=3.4 q=61.0 size=       0KiB time=00:00:00.51 bitrate=   7.4kbits/s speed=0.0283x elapsed=0:00:18.25    \nframe=   66 fps=3.5 q=54.0 size=       0KiB time=00:00:00.53 bitrate=   7.2kbits/s speed=0.0281x elapsed=0:00:18.95    \nframe=   68 fps=3.4 q=55.0 size=       0KiB time=00:00:00.56 bitrate=   6.8kbits/s speed=0.0286x elapsed=0:00:19.81    \nframe=   70 fps=3.4 q=56.0 size=       0KiB time=00:00:00.58 bitrate=   6.6kbits/s speed=0.0284x elapsed=0:00:20.55    \nframe=   74 fps=3.5 q=60.0 size=       0KiB time=00:00:00.60 bitrate=   6.3kbits/s speed=0.0286x elapsed=0:00:21.24    \nframe=   76 fps=3.4 q=47.0 size=       0KiB time=00:00:00.63 bitrate=   6.1kbits/s speed=0.0285x elapsed=0:00:22.18    \nframe=   79 fps=3.5 q=52.0 size=       0KiB time=00:00:00.65 bitrate=   5.9kbits/s speed=0.0285x elapsed=0:00:22.80    \nframe=   82 fps=3.5 q=54.0 size=       0KiB time=00:00:00.68 bitrate=   5.6kbits/s speed=0.0289x elapsed=0:00:23.60    \nframe=   85 fps=3.5 q=55.0 size=       0KiB time=00:00:00.70 bitrate=   5.4kbits/s speed=0.0293x elapsed=0:00:24.16    \nframe=   89 fps=3.6 q=59.0 size=       0KiB time=00:00:00.74 bitrate=   5.2kbits/s speed=0.0301x elapsed=0:00:24.67    \nframe=   92 fps=3.7 q=59.0 size=       0KiB time=00:00:00.76 bitrate=   5.0kbits/s speed=0.0304x elapsed=0:00:25.19    \nframe=   96 fps=3.7 q=52.0 size=       0KiB time=00:00:00.80 bitrate=   4.8kbits/s speed=0.0311x elapsed=0:00:25.76    \nframe=   99 fps=3.8 q=54.0 size=       0KiB time=00:00:00.82 bitrate=   4.7kbits/s speed=0.0314x elapsed=0:00:26.28    \nframe=  103 fps=3.8 q=55.0 size=       0KiB time=00:00:00.85 bitrate=   4.5kbits/s speed=0.032x elapsed=0:00:26.80    \nframe=  105 fps=3.8 q=55.0 size=       0KiB time=00:00:00.87 bitrate=   4.4kbits/s speed=0.0319x elapsed=0:00:27.38    \nframe=  108 fps=3.9 q=52.0 size=       0KiB time=00:00:00.90 bitrate=   4.3kbits/s speed=0.0322x elapsed=0:00:27.95    \nframe=  111 fps=3.9 q=54.0 size=       0KiB time=00:00:00.92 bitrate=   4.2kbits/s speed=0.0324x elapsed=0:00:28.50    \nframe=  115 fps=4.0 q=56.0 size=       0KiB time=00:00:00.95 bitrate=   4.1kbits/s speed=0.0327x elapsed=0:00:29.09    \nframe=  116 fps=3.9 q=55.0 size=       0KiB time=00:00:00.96 bitrate=   4.0kbits/s speed=0.0325x elapsed=0:00:29.71    \nframe=  118 fps=3.9 q=58.0 size=       0KiB time=00:00:00.98 bitrate=   3.9kbits/s speed=0.0325x elapsed=0:00:30.23    \nframe=  121 fps=3.9 q=53.0 size=       0KiB time=00:00:01.00 bitrate=   3.8kbits/s speed=0.0328x elapsed=0:00:30.76    \nframe=  124 fps=4.0 q=54.0 size=       0KiB time=00:00:01.03 bitrate=   3.7kbits/s speed=0.0329x elapsed=0:00:31.37    \nframe=  127 fps=4.0 q=55.0 size=       0KiB time=00:00:01.05 bitrate=   3.6kbits/s speed=0.0332x elapsed=0:00:31.90    \nframe=  128 fps=3.9 q=55.0 size=       0KiB time=00:00:01.06 bitrate=   3.6kbits/s speed=0.0328x elapsed=0:00:32.47    \nframe=  132 fps=4.0 q=51.0 size=     145KiB time=00:00:01.10 bitrate=1082.2kbits/s speed=0.0333x elapsed=0:00:33.01    \nframe=  137 fps=4.1 q=53.0 size=     145KiB time=00:00:01.14 bitrate=1042.7kbits/s speed=0.034x elapsed=0:00:33.56    \nframe=  141 fps=4.1 q=53.0 size=     145KiB time=00:00:01.17 bitrate=1013.2kbits/s speed=0.0345x elapsed=0:00:34.08    \nframe=  143 fps=4.1 q=53.0 size=     145KiB time=00:00:01.19 bitrate= 999.0kbits/s speed=0.0344x elapsed=0:00:34.64    \nframe=  146 fps=4.2 q=53.0 size=     145KiB time=00:00:01.21 bitrate= 978.5kbits/s speed=0.0346x elapsed=0:00:35.17    \nframe=  150 fps=4.2 q=55.0 size=     145KiB time=00:00:01.25 bitrate= 952.4kbits/s speed=0.035x elapsed=0:00:35.75    \nframe=  152 fps=4.2 q=56.0 size=     145KiB time=00:00:01.26 bitrate= 939.8kbits/s speed=0.0348x elapsed=0:00:36.35    \nframe=  156 fps=4.2 q=60.0 size=     145KiB time=00:00:01.30 bitrate= 915.7kbits/s speed=0.0352x elapsed=0:00:36.95    \nframe=  158 fps=4.2 q=59.0 size=     145KiB time=00:00:01.31 bitrate= 904.1kbits/s speed=0.0351x elapsed=0:00:37.48    \nframe=  161 fps=4.2 q=51.0 size=     145KiB time=00:00:01.34 bitrate= 887.3kbits/s speed=0.0353x elapsed=0:00:38.00    \nframe=  164 fps=4.3 q=54.0 size=     145KiB time=00:00:01.36 bitrate= 871.1kbits/s speed=0.0354x elapsed=0:00:38.55    \nframe=  167 fps=4.3 q=55.0 size=     145KiB time=00:00:01.39 bitrate= 855.4kbits/s speed=0.0356x elapsed=0:00:39.12    \nframe=  171 fps=4.3 q=58.0 size=     145KiB time=00:00:01.42 bitrate= 835.4kbits/s speed=0.0359x elapsed=0:00:39.66    \nframe=  174 fps=4.3 q=50.0 size=     145KiB time=00:00:01.44 bitrate= 825.7kbits/s speed=0.0358x elapsed=0:00:40.23    \nframe=  177 fps=4.3 q=53.0 size=     145KiB time=00:00:01.46 bitrate= 811.7kbits/s speed=0.0359x elapsed=0:00:40.84    \nframe=  179 fps=4.3 q=54.0 size=     145KiB time=00:00:01.49 bitrate= 798.1kbits/s speed=0.0361x elapsed=0:00:41.36    \nframe=  182 fps=4.3 q=52.0 size=     145KiB time=00:00:01.51 bitrate= 784.9kbits/s speed=0.0361x elapsed=0:00:41.96    \nframe=  185 fps=4.4 q=58.0 size=     145KiB time=00:00:01.54 bitrate= 772.2kbits/s speed=0.0363x elapsed=0:00:42.47    \nframe=  187 fps=4.4 q=55.0 size=     145KiB time=00:00:01.55 bitrate= 763.9kbits/s speed=0.0363x elapsed=0:00:42.98    \nframe=  188 fps=4.3 q=53.0 size=     145KiB time=00:00:01.56 bitrate= 759.9kbits/s speed=0.036x elapsed=0:00:43.50    \nframe=  189 fps=4.3 q=46.0 size=     145KiB time=00:00:01.57 bitrate= 755.8kbits/s speed=0.0358x elapsed=0:00:44.01    \nframe=  191 fps=4.3 q=51.0 size=     145KiB time=00:00:01.59 bitrate= 747.9kbits/s speed=0.0357x elapsed=0:00:44.53    \nframe=  193 fps=4.3 q=51.0 size=     145KiB time=00:00:01.60 bitrate= 740.2kbits/s speed=0.0357x elapsed=0:00:45.04    \nframe=  195 fps=4.3 q=52.0 size=     145KiB time=00:00:01.62 bitrate= 732.6kbits/s speed=0.0357x elapsed=0:00:45.57    \nframe=  196 fps=4.3 q=55.0 size=     145KiB time=00:00:01.63 bitrate= 728.9kbits/s speed=0.0354x elapsed=0:00:46.09    \nframe=  198 fps=4.2 q=56.0 size=     145KiB time=00:00:01.65 bitrate= 721.5kbits/s speed=0.0354x elapsed=0:00:46.61    \nframe=  200 fps=4.2 q=57.0 size=     145KiB time=00:00:01.66 bitrate= 714.3kbits/s speed=0.0353x elapsed=0:00:47.15    \nframe=  202 fps=4.2 q=57.0 size=     145KiB time=00:00:01.68 bitrate= 707.2kbits/s speed=0.0353x elapsed=0:00:47.68    \nframe=  203 fps=4.2 q=53.0 size=     145KiB time=00:00:01.69 bitrate= 703.7kbits/s speed=0.0351x elapsed=0:00:48.20    \nframe=  206 fps=4.2 q=51.0 size=     145KiB time=00:00:01.71 bitrate= 693.5kbits/s speed=0.0352x elapsed=0:00:48.73    \nframe=  208 fps=4.2 q=52.0 size=     145KiB time=00:00:01.73 bitrate= 686.8kbits/s speed=0.0352x elapsed=0:00:49.26    \nframe=  210 fps=4.2 q=53.0 size=     145KiB time=00:00:01.75 bitrate= 680.3kbits/s speed=0.0352x elapsed=0:00:49.78    \nframe=  211 fps=4.2 q=53.0 size=     145KiB time=00:00:01.75 bitrate= 677.0kbits/s speed=0.035x elapsed=0:00:50.30    \nframe=  213 fps=4.2 q=54.0 size=     145KiB time=00:00:01.77 bitrate= 670.7kbits/s speed=0.0349x elapsed=0:00:50.83    \nframe=  215 fps=4.2 q=54.0 size=     145KiB time=00:00:01.79 bitrate= 664.4kbits/s speed=0.0349x elapsed=0:00:51.36    \nframe=  216 fps=4.2 q=55.0 size=     145KiB time=00:00:01.80 bitrate= 661.4kbits/s speed=0.0347x elapsed=0:00:51.87    \nframe=  218 fps=4.2 q=57.0 size=     145KiB time=00:00:01.81 bitrate= 655.3kbits/s speed=0.0347x elapsed=0:00:52.40    \nframe=  219 fps=4.1 q=49.0 size=     145KiB time=00:00:01.82 bitrate= 652.3kbits/s speed=0.0345x elapsed=0:00:52.93    \nframe=  221 fps=4.1 q=50.0 size=     145KiB time=00:00:01.84 bitrate= 646.4kbits/s speed=0.0344x elapsed=0:00:53.46    \nframe=  223 fps=4.1 q=52.0 size=     145KiB time=00:00:01.85 bitrate= 640.6kbits/s speed=0.0344x elapsed=0:00:53.99    \nframe=  225 fps=4.1 q=52.0 size=     145KiB time=00:00:01.87 bitrate= 634.9kbits/s speed=0.0344x elapsed=0:00:54.51    \nframe=  227 fps=4.1 q=52.0 size=     145KiB time=00:00:01.89 bitrate= 629.3kbits/s speed=0.0344x elapsed=0:00:55.05    \nframe=  230 fps=4.1 q=57.0 size=     145KiB time=00:00:01.91 bitrate= 621.1kbits/s speed=0.0345x elapsed=0:00:55.56    \nframe=  232 fps=4.1 q=57.0 size=     145KiB time=00:00:01.93 bitrate= 615.8kbits/s speed=0.0345x elapsed=0:00:56.07    \nframe=  233 fps=4.1 q=52.0 size=     145KiB time=00:00:01.94 bitrate= 613.1kbits/s speed=0.0343x elapsed=0:00:56.59    \nframe=  235 fps=4.1 q=57.0 size=     145KiB time=00:00:01.95 bitrate= 607.9kbits/s speed=0.0343x elapsed=0:00:57.10    \nframe=  237 fps=4.1 q=51.0 size=     145KiB time=00:00:01.97 bitrate= 602.8kbits/s speed=0.0343x elapsed=0:00:57.64    \nframe=  238 fps=4.1 q=52.0 size=     145KiB time=00:00:01.98 bitrate= 600.2kbits/s speed=0.0341x elapsed=0:00:58.17    \nframe=  240 fps=4.1 q=54.0 size=     145KiB time=00:00:02.00 bitrate= 595.2kbits/s speed=0.0341x elapsed=0:00:58.69    \nframe=  242 fps=4.1 q=55.0 size=     145KiB time=00:00:02.01 bitrate= 590.3kbits/s speed=0.034x elapsed=0:00:59.22    \nframe=  244 fps=4.1 q=57.0 size=     145KiB time=00:00:02.03 bitrate= 585.5kbits/s speed=0.034x elapsed=0:00:59.75    \nframe=  245 fps=4.1 q=49.0 size=     145KiB time=00:00:02.04 bitrate= 583.1kbits/s speed=0.0339x elapsed=0:01:00.28    \nframe=  247 fps=4.1 q=51.0 size=     145KiB time=00:00:02.05 bitrate= 578.4kbits/s speed=0.0339x elapsed=0:01:00.79    \nframe=  249 fps=4.1 q=52.0 size=     145KiB time=00:00:02.07 bitrate= 573.7kbits/s speed=0.0338x elapsed=0:01:01.32    \nframe=  250 fps=4.0 q=55.0 size=     145KiB time=00:00:02.08 bitrate= 571.4kbits/s speed=0.0337x elapsed=0:01:01.84    \nframe=  252 fps=4.0 q=57.0 size=     145KiB time=00:00:02.10 bitrate= 566.9kbits/s speed=0.0337x elapsed=0:01:02.36    \nframe=  254 fps=4.0 q=57.0 size=     145KiB time=00:00:02.11 bitrate= 562.4kbits/s speed=0.0337x elapsed=0:01:02.89    \nframe=  256 fps=4.0 q=58.0 size=     145KiB time=00:00:02.13 bitrate= 558.0kbits/s speed=0.0336x elapsed=0:01:03.40    \nframe=  257 fps=4.0 q=44.0 size=     145KiB time=00:00:02.14 bitrate= 555.9kbits/s speed=0.0335x elapsed=0:01:03.92    \nframe=  259 fps=4.0 q=52.0 size=     256KiB time=00:00:02.15 bitrate= 971.7kbits/s speed=0.0335x elapsed=0:01:04.43    \nframe=  262 fps=4.0 q=54.0 size=     256KiB time=00:00:02.18 bitrate= 960.5kbits/s speed=0.0336x elapsed=0:01:04.95    \nframe=  263 fps=4.0 q=55.0 size=     256KiB time=00:00:02.19 bitrate= 956.9kbits/s speed=0.0335x elapsed=0:01:05.47    \nframe=  265 fps=4.0 q=55.0 size=     256KiB time=00:00:02.20 bitrate= 949.7kbits/s speed=0.0335x elapsed=0:01:06.00    \nframe=  267 fps=4.0 q=54.0 size=     256KiB time=00:00:02.22 bitrate= 942.5kbits/s speed=0.0334x elapsed=0:01:06.51    \nframe=  269 fps=4.0 q=56.0 size=     256KiB time=00:00:02.24 bitrate= 935.5kbits/s speed=0.0334x elapsed=0:01:07.03    \nframe=  270 fps=4.0 q=54.0 size=     256KiB time=00:00:02.25 bitrate= 932.1kbits/s speed=0.0333x elapsed=0:01:07.56    \nframe=  272 fps=4.0 q=57.0 size=     256KiB time=00:00:02.26 bitrate= 925.2kbits/s speed=0.0333x elapsed=0:01:08.08    \nframe=  274 fps=4.0 q=53.0 size=     256KiB time=00:00:02.27 bitrate= 921.8kbits/s speed=0.0332x elapsed=0:01:08.59    \nframe=  275 fps=4.0 q=54.0 size=     256KiB time=00:00:02.29 bitrate= 915.1kbits/s speed=0.0332x elapsed=0:01:09.12    \nframe=  277 fps=4.0 q=55.0 size=     256KiB time=00:00:02.30 bitrate= 908.5kbits/s speed=0.0331x elapsed=0:01:09.63    \nframe=  278 fps=4.0 q=47.0 size=     256KiB time=00:00:02.31 bitrate= 905.2kbits/s speed=0.033x elapsed=0:01:10.16    \nframe=  280 fps=4.0 q=52.0 size=     256KiB time=00:00:02.33 bitrate= 898.8kbits/s speed=0.033x elapsed=0:01:10.69    \nframe=  282 fps=4.0 q=54.0 size=     256KiB time=00:00:02.35 bitrate= 892.4kbits/s speed=0.033x elapsed=0:01:11.21    \nframe=  284 fps=4.0 q=55.0 size=     256KiB time=00:00:02.36 bitrate= 886.1kbits/s speed=0.033x elapsed=0:01:11.72    \nframe=  285 fps=3.9 q=47.0 size=     256KiB time=00:00:02.37 bitrate= 883.0kbits/s speed=0.0329x elapsed=0:01:12.25    \nframe=  287 fps=3.9 q=51.0 size=     256KiB time=00:00:02.39 bitrate= 876.9kbits/s speed=0.0329x elapsed=0:01:12.78    \nframe=  289 fps=3.9 q=53.0 size=     256KiB time=00:00:02.40 bitrate= 870.8kbits/s speed=0.0329x elapsed=0:01:13.30    \nframe=  291 fps=3.9 q=54.0 size=     256KiB time=00:00:02.42 bitrate= 864.8kbits/s speed=0.0328x elapsed=0:01:13.83    \nframe=  293 fps=3.9 q=58.0 size=     256KiB time=00:00:02.44 bitrate= 858.9kbits/s speed=0.0328x elapsed=0:01:14.34    \nframe=  294 fps=3.9 q=52.0 size=     256KiB time=00:00:02.45 bitrate= 856.0kbits/s speed=0.0327x elapsed=0:01:14.86    \nframe=  296 fps=3.9 q=54.0 size=     256KiB time=00:00:02.46 bitrate= 850.2kbits/s speed=0.0327x elapsed=0:01:15.37    \nframe=  298 fps=3.9 q=55.0 size=     256KiB time=00:00:02.48 bitrate= 844.5kbits/s speed=0.0327x elapsed=0:01:15.91    \nframe=  299 fps=3.9 q=48.0 size=     256KiB time=00:00:02.49 bitrate= 841.7kbits/s speed=0.0326x elapsed=0:01:16.44    \nframe=  301 fps=3.9 q=52.0 size=     256KiB time=00:00:02.50 bitrate= 836.1kbits/s speed=0.0326x elapsed=0:01:16.97    \nframe=  303 fps=3.9 q=54.0 size=     256KiB time=00:00:02.52 bitrate= 830.6kbits/s speed=0.0326x elapsed=0:01:17.49    \nframe=  305 fps=3.9 q=54.0 size=     256KiB time=00:00:02.54 bitrate= 825.1kbits/s speed=0.0326x elapsed=0:01:18.02    \nframe=  307 fps=3.9 q=58.0 size=     256KiB time=00:00:02.55 bitrate= 819.7kbits/s speed=0.0326x elapsed=0:01:18.55    \nframe=  309 fps=3.9 q=54.0 size=     256KiB time=00:00:02.57 bitrate= 814.4kbits/s speed=0.0326x elapsed=0:01:19.08    \nframe=  311 fps=3.9 q=55.0 size=     256KiB time=00:00:02.59 bitrate= 809.2kbits/s speed=0.0326x elapsed=0:01:19.60    \nframe=  312 fps=3.9 q=54.0 size=     256KiB time=00:00:02.60 bitrate= 806.6kbits/s speed=0.0324x elapsed=0:01:20.15    \nframe=  314 fps=3.9 q=57.0 size=     256KiB time=00:00:02.61 bitrate= 801.5kbits/s speed=0.0324x elapsed=0:01:20.67    \nframe=  316 fps=3.9 q=54.0 size=     256KiB time=00:00:02.63 bitrate= 796.4kbits/s speed=0.0324x elapsed=0:01:21.19    \nframe=  318 fps=3.9 q=55.0 size=     256KiB time=00:00:02.65 bitrate= 791.4kbits/s speed=0.0324x elapsed=0:01:21.71    \nframe=  320 fps=3.9 q=47.0 size=     256KiB time=00:00:02.66 bitrate= 786.4kbits/s speed=0.0324x elapsed=0:01:22.23    \nframe=  322 fps=3.9 q=52.0 size=     256KiB time=00:00:02.68 bitrate= 781.5kbits/s speed=0.0324x elapsed=0:01:22.75    \nframe=  324 fps=3.9 q=54.0 size=     256KiB time=00:00:02.70 bitrate= 776.7kbits/s speed=0.0324x elapsed=0:01:23.28    \nframe=  326 fps=3.9 q=55.0 size=     256KiB time=00:00:02.71 bitrate= 772.0kbits/s speed=0.0324x elapsed=0:01:23.81    \nframe=  327 fps=3.9 q=47.0 size=     256KiB time=00:00:02.72 bitrate= 769.6kbits/s speed=0.0323x elapsed=0:01:24.33    \nframe=  329 fps=3.9 q=52.0 size=     256KiB time=00:00:02.74 bitrate= 764.9kbits/s speed=0.0323x elapsed=0:01:24.84    \nframe=  332 fps=3.9 q=55.0 size=     256KiB time=00:00:02.76 bitrate= 758.0kbits/s speed=0.0324x elapsed=0:01:25.36    \nframe=  333 fps=3.9 q=55.0 size=     256KiB time=00:00:02.77 bitrate= 755.7kbits/s speed=0.0323x elapsed=0:01:25.87    \nframe=  335 fps=3.9 q=56.0 size=     256KiB time=00:00:02.79 bitrate= 751.2kbits/s speed=0.0323x elapsed=0:01:26.40    \nframe=  337 fps=3.9 q=53.0 size=     256KiB time=00:00:02.80 bitrate= 746.8kbits/s speed=0.0323x elapsed=0:01:26.93    \nframe=  339 fps=3.9 q=54.0 size=     256KiB time=00:00:02.82 bitrate= 742.4kbits/s speed=0.0323x elapsed=0:01:27.46    \nframe=  341 fps=3.9 q=47.0 size=     256KiB time=00:00:02.83 bitrate= 740.2kbits/s speed=0.0322x elapsed=0:01:27.99    \nframe=  342 fps=3.9 q=56.0 size=     256KiB time=00:00:02.85 bitrate= 735.8kbits/s speed=0.0322x elapsed=0:01:28.51    \nframe=  344 fps=3.9 q=54.0 size=     256KiB time=00:00:02.86 bitrate= 731.6kbits/s speed=0.0322x elapsed=0:01:29.03    \nframe=  346 fps=3.9 q=55.0 size=     256KiB time=00:00:02.88 bitrate= 727.3kbits/s speed=0.0322x elapsed=0:01:29.55    \nframe=  347 fps=3.9 q=54.0 size=     256KiB time=00:00:02.89 bitrate= 725.2kbits/s speed=0.0321x elapsed=0:01:30.08    \nframe=  350 fps=3.9 q=53.0 size=     256KiB time=00:00:02.91 bitrate= 719.0kbits/s speed=0.0322x elapsed=0:01:30.59    \nframe=  352 fps=3.9 q=54.0 size=     256KiB time=00:00:02.93 bitrate= 714.9kbits/s speed=0.0322x elapsed=0:01:31.13    \nframe=  354 fps=3.9 q=56.0 size=     256KiB time=00:00:02.95 bitrate= 710.9kbits/s speed=0.0322x elapsed=0:01:31.65    \nframe=  356 fps=3.9 q=55.0 size=     256KiB time=00:00:02.96 bitrate= 706.9kbits/s speed=0.0322x elapsed=0:01:32.18    \nframe=  357 fps=3.9 q=52.0 size=     256KiB time=00:00:02.97 bitrate= 704.9kbits/s speed=0.0321x elapsed=0:01:32.70    \nframe=  359 fps=3.9 q=53.0 size=     256KiB time=00:00:02.99 bitrate= 701.0kbits/s speed=0.0321x elapsed=0:01:33.24    \nframe=  361 fps=3.9 q=55.0 size=     256KiB time=00:00:03.00 bitrate= 697.1kbits/s speed=0.0321x elapsed=0:01:33.76    \nframe=  363 fps=3.8 q=57.0 size=     256KiB time=00:00:03.02 bitrate= 693.3kbits/s speed=0.0321x elapsed=0:01:34.28    \nframe=  365 fps=3.8 q=53.0 size=     256KiB time=00:00:03.04 bitrate= 689.5kbits/s speed=0.0321x elapsed=0:01:34.83    \nframe=  367 fps=3.8 q=55.0 size=     256KiB time=00:00:03.05 bitrate= 685.7kbits/s speed=0.0321x elapsed=0:01:35.36    \nframe=  368 fps=3.8 q=55.0 size=     256KiB time=00:00:03.06 bitrate= 683.9kbits/s speed=0.032x elapsed=0:01:35.89    \nframe=  371 fps=3.8 q=52.0 size=     256KiB time=00:00:03.09 bitrate= 678.3kbits/s speed=0.0321x elapsed=0:01:36.40    \nframe=  373 fps=3.8 q=53.0 size=     256KiB time=00:00:03.10 bitrate= 674.7kbits/s speed=0.0321x elapsed=0:01:36.92    \nframe=  375 fps=3.8 q=54.0 size=     256KiB time=00:00:03.12 bitrate= 671.1kbits/s speed=0.0321x elapsed=0:01:37.43    \nframe=  376 fps=3.8 q=47.0 size=     256KiB time=00:00:03.13 bitrate= 669.3kbits/s speed=0.032x elapsed=0:01:37.95    \nframe=  378 fps=3.8 q=50.0 size=     256KiB time=00:00:03.15 bitrate= 665.8kbits/s speed=0.032x elapsed=0:01:38.47    \nframe=  380 fps=3.8 q=52.0 size=     256KiB time=00:00:03.16 bitrate= 662.3kbits/s speed=0.032x elapsed=0:01:39.01    \nframe=  382 fps=3.8 q=53.0 size=     256KiB time=00:00:03.18 bitrate= 658.8kbits/s speed=0.032x elapsed=0:01:39.53    \nframe=  384 fps=3.8 q=53.0 size=     256KiB time=00:00:03.20 bitrate= 655.4kbits/s speed=0.032x elapsed=0:01:40.04    \nframe=  385 fps=3.8 q=47.0 size=     256KiB time=00:00:03.20 bitrate= 653.7kbits/s speed=0.0319x elapsed=0:01:40.56    \nframe=  387 fps=3.8 q=54.0 size=     256KiB time=00:00:03.22 bitrate= 650.3kbits/s speed=0.0319x elapsed=0:01:41.09    \nframe=  389 fps=3.8 q=54.0 size=     256KiB time=00:00:03.24 bitrate= 646.9kbits/s speed=0.0319x elapsed=0:01:41.62    \nframe=  391 fps=3.8 q=56.0 size=     256KiB time=00:00:03.25 bitrate= 643.6kbits/s speed=0.0319x elapsed=0:01:42.13    \nframe=  393 fps=3.8 q=52.0 size=     256KiB time=00:00:03.27 bitrate= 640.4kbits/s speed=0.0319x elapsed=0:01:42.65    \nframe=  395 fps=3.8 q=53.0 size=     256KiB time=00:00:03.29 bitrate= 637.1kbits/s speed=0.0319x elapsed=0:01:43.17    \nframe=  397 fps=3.8 q=54.0 size=     256KiB time=00:00:03.30 bitrate= 633.9kbits/s speed=0.0319x elapsed=0:01:43.70    \nframe=  399 fps=3.8 q=56.0 size=     256KiB time=00:00:03.31 bitrate= 632.3kbits/s speed=0.0318x elapsed=0:01:44.22    \nframe=  401 fps=3.8 q=58.0 size=     256KiB time=00:00:03.34 bitrate= 627.6kbits/s speed=0.0319x elapsed=0:01:44.76    \nframe=  403 fps=3.8 q=56.0 size=     256KiB time=00:00:03.35 bitrate= 624.5kbits/s speed=0.0319x elapsed=0:01:45.28    \nframe=  404 fps=3.8 q=54.0 size=     256KiB time=00:00:03.36 bitrate= 622.9kbits/s speed=0.0318x elapsed=0:01:45.81    \nframe=  406 fps=3.8 q=53.0 size=     256KiB time=00:00:03.38 bitrate= 619.8kbits/s speed=0.0318x elapsed=0:01:46.33    \nframe=  408 fps=3.8 q=58.0 size=     256KiB time=00:00:03.40 bitrate= 616.8kbits/s speed=0.0318x elapsed=0:01:46.86    \nframe=  409 fps=3.8 q=51.0 size=     256KiB time=00:00:03.40 bitrate= 615.3kbits/s speed=0.0317x elapsed=0:01:47.37    \nframe=  411 fps=3.8 q=52.0 size=     256KiB time=00:00:03.42 bitrate= 612.3kbits/s speed=0.0317x elapsed=0:01:47.89    \nframe=  413 fps=3.8 q=53.0 size=     256KiB time=00:00:03.44 bitrate= 609.3kbits/s speed=0.0317x elapsed=0:01:48.41    \nframe=  415 fps=3.8 q=54.0 size=     256KiB time=00:00:03.45 bitrate= 606.4kbits/s speed=0.0317x elapsed=0:01:48.94    \nframe=  417 fps=3.8 q=55.0 size=     256KiB time=00:00:03.47 bitrate= 603.5kbits/s speed=0.0317x elapsed=0:01:49.47    \nframe=  419 fps=3.8 q=56.0 size=     256KiB time=00:00:03.49 bitrate= 600.6kbits/s speed=0.0317x elapsed=0:01:49.98    \nframe=  421 fps=3.8 q=58.0 size=     256KiB time=00:00:03.50 bitrate= 597.8kbits/s speed=0.0317x elapsed=0:01:50.50    \nframe=  423 fps=3.8 q=53.0 size=     256KiB time=00:00:03.52 bitrate= 594.9kbits/s speed=0.0318x elapsed=0:01:51.01    \nframe=  425 fps=3.8 q=53.0 size=     256KiB time=00:00:03.54 bitrate= 592.1kbits/s speed=0.0318x elapsed=0:01:51.53    \nframe=  427 fps=3.8 q=54.0 size=     256KiB time=00:00:03.55 bitrate= 589.4kbits/s speed=0.0318x elapsed=0:01:52.04    \nframe=  429 fps=3.8 q=56.0 size=     256KiB time=00:00:03.57 bitrate= 586.6kbits/s speed=0.0318x elapsed=0:01:52.56    \nframe=  430 fps=3.8 q=52.0 size=     256KiB time=00:00:03.58 bitrate= 585.3kbits/s speed=0.0317x elapsed=0:01:53.09    \nframe=  432 fps=3.8 q=52.0 size=     256KiB time=00:00:03.60 bitrate= 582.5kbits/s speed=0.0317x elapsed=0:01:53.61    \nframe=  434 fps=3.8 q=52.0 size=     256KiB time=00:00:03.61 bitrate= 579.9kbits/s speed=0.0317x elapsed=0:01:54.12    \nframe=  436 fps=3.8 q=52.0 size=     256KiB time=00:00:03.63 bitrate= 577.2kbits/s speed=0.0317x elapsed=0:01:54.65    \nframe=  437 fps=3.8 q=45.0 size=     256KiB time=00:00:03.64 bitrate= 575.9kbits/s speed=0.0316x elapsed=0:01:55.17    \nframe=  440 fps=3.8 q=52.0 size=     256KiB time=00:00:03.66 bitrate= 572.0kbits/s speed=0.0317x elapsed=0:01:55.69    \nframe=  441 fps=3.8 q=52.0 size=     256KiB time=00:00:03.67 bitrate= 570.7kbits/s speed=0.0316x elapsed=0:01:56.20    \nframe=  443 fps=3.8 q=53.0 size=     256KiB time=00:00:03.69 bitrate= 568.1kbits/s speed=0.0316x elapsed=0:01:56.72    \nframe=  446 fps=3.8 q=55.0 size=     256KiB time=00:00:03.71 bitrate= 564.3kbits/s speed=0.0317x elapsed=0:01:57.25    \nframe=  448 fps=3.8 q=56.0 size=     256KiB time=00:00:03.73 bitrate= 561.7kbits/s speed=0.0317x elapsed=0:01:57.77    \nframe=  450 fps=3.8 q=58.0 size=     256KiB time=00:00:03.75 bitrate= 559.2kbits/s speed=0.0317x elapsed=0:01:58.30    \nframe=  451 fps=3.8 q=51.0 size=     256KiB time=00:00:03.75 bitrate= 558.0kbits/s speed=0.0316x elapsed=0:01:58.84    \nframe=  453 fps=3.8 q=60.0 size=     256KiB time=00:00:03.77 bitrate= 555.5kbits/s speed=0.0316x elapsed=0:01:59.36    \nframe=  455 fps=3.8 q=52.0 size=     256KiB time=00:00:03.78 bitrate= 554.3kbits/s speed=0.0316x elapsed=0:01:59.87    \nframe=  457 fps=3.8 q=53.0 size=     256KiB time=00:00:03.80 bitrate= 550.7kbits/s speed=0.0316x elapsed=0:02:00.41    \nframe=  459 fps=3.8 q=54.0 size=     256KiB time=00:00:03.82 bitrate= 548.3kbits/s speed=0.0316x elapsed=0:02:00.94    \nframe=  461 fps=3.8 q=55.0 size=     256KiB time=00:00:03.84 bitrate= 545.9kbits/s speed=0.0316x elapsed=0:02:01.46    \nframe=  463 fps=3.8 q=57.0 size=     256KiB time=00:00:03.85 bitrate= 543.5kbits/s speed=0.0316x elapsed=0:02:01.98    \nframe=  465 fps=3.8 q=58.0 size=     256KiB time=00:00:03.87 bitrate= 541.2kbits/s speed=0.0316x elapsed=0:02:02.52    \nframe=  466 fps=3.8 q=52.0 size=     256KiB time=00:00:03.88 bitrate= 540.0kbits/s speed=0.0316x elapsed=0:02:03.04    \nframe=  468 fps=3.8 q=58.0 size=     256KiB time=00:00:03.90 bitrate= 537.7kbits/s speed=0.0316x elapsed=0:02:03.56    \nframe=  470 fps=3.8 q=52.0 size=     256KiB time=00:00:03.91 bitrate= 535.4kbits/s speed=0.0316x elapsed=0:02:04.07    \nframe=  472 fps=3.8 q=53.0 size=     256KiB time=00:00:03.93 bitrate= 533.2kbits/s speed=0.0316x elapsed=0:02:04.60    \nframe=  474 fps=3.8 q=54.0 size=     256KiB time=00:00:03.95 bitrate= 530.9kbits/s speed=0.0316x elapsed=0:02:05.13    \nframe=  476 fps=3.8 q=54.0 size=     256KiB time=00:00:03.96 bitrate= 528.7kbits/s speed=0.0316x elapsed=0:02:05.66    \nframe=  478 fps=3.8 q=54.0 size=     256KiB time=00:00:03.98 bitrate= 526.5kbits/s speed=0.0316x elapsed=0:02:06.19    \nframe=  480 fps=3.8 q=53.0 size=     256KiB time=00:00:04.00 bitrate= 524.3kbits/s speed=0.0316x elapsed=0:02:06.72    \nframe=  482 fps=3.8 q=51.0 size=     256KiB time=00:00:04.01 bitrate= 522.1kbits/s speed=0.0316x elapsed=0:02:07.26    \nframe=  484 fps=3.8 q=53.0 size=     256KiB time=00:00:04.03 bitrate= 520.0kbits/s speed=0.0316x elapsed=0:02:07.77    \nframe=  486 fps=3.8 q=54.0 size=     256KiB time=00:00:04.05 bitrate= 517.8kbits/s speed=0.0316x elapsed=0:02:08.30    \nframe=  488 fps=3.8 q=55.0 size=     256KiB time=00:00:04.06 bitrate= 515.7kbits/s speed=0.0316x elapsed=0:02:08.81    \nframe=  490 fps=3.8 q=58.0 size=     256KiB time=00:00:04.08 bitrate= 513.6kbits/s speed=0.0316x elapsed=0:02:09.34    \nframe=  492 fps=3.8 q=54.0 size=     256KiB time=00:00:04.10 bitrate= 511.5kbits/s speed=0.0316x elapsed=0:02:09.88    \nframe=  494 fps=3.8 q=55.0 size=     256KiB time=00:00:04.11 bitrate= 509.4kbits/s speed=0.0316x elapsed=0:02:10.41    \nframe=  496 fps=3.8 q=56.0 size=     256KiB time=00:00:04.13 bitrate= 507.4kbits/s speed=0.0316x elapsed=0:02:10.94    \nframe=  498 fps=3.8 q=59.0 size=     256KiB time=00:00:04.15 bitrate= 505.3kbits/s speed=0.0316x elapsed=0:02:11.48    \nframe=  500 fps=3.8 q=59.0 size=     256KiB time=00:00:04.16 bitrate= 503.3kbits/s speed=0.0316x elapsed=0:02:12.00    \nframe=  502 fps=3.8 q=55.0 size=     256KiB time=00:00:04.18 bitrate= 501.3kbits/s speed=0.0316x elapsed=0:02:12.51    \nframe=  503 fps=3.8 q=52.0 size=     256KiB time=00:00:04.19 bitrate= 500.3kbits/s speed=0.0315x elapsed=0:02:13.04    \nframe=  505 fps=3.8 q=54.0 size=     256KiB time=00:00:04.20 bitrate= 498.3kbits/s speed=0.0315x elapsed=0:02:13.56    \nframe=  507 fps=3.8 q=55.0 size=     256KiB time=00:00:04.22 bitrate= 496.4kbits/s speed=0.0315x elapsed=0:02:14.08    \nframe=  510 fps=3.8 q=58.0 size=     256KiB time=00:00:04.25 bitrate= 493.4kbits/s speed=0.0316x elapsed=0:02:14.59    \nframe=  512 fps=3.8 q=59.0 size=     256KiB time=00:00:04.26 bitrate= 491.5kbits/s speed=0.0316x elapsed=0:02:15.11    \nframe=  512 fps=3.8 q=59.0 size=     256KiB time=00:00:04.26 bitrate= 491.5kbits/s speed=0.0315x elapsed=0:02:15.63    \nframe=  515 fps=3.8 q=50.0 size=     512KiB time=00:00:04.29 bitrate= 977.3kbits/s speed=0.0315x elapsed=0:02:16.15    \nframe=  517 fps=3.8 q=52.0 size=     512KiB time=00:00:04.30 bitrate= 973.5kbits/s speed=0.0315x elapsed=0:02:16.67    \nframe=  519 fps=3.8 q=53.0 size=     512KiB time=00:00:04.32 bitrate= 969.8kbits/s speed=0.0315x elapsed=0:02:17.21    \nframe=  521 fps=3.8 q=54.0 size=     512KiB time=00:00:04.34 bitrate= 966.1kbits/s speed=0.0315x elapsed=0:02:17.73    \nframe=  524 fps=3.8 q=58.0 size=     512KiB time=00:00:04.36 bitrate= 960.5kbits/s speed=0.0316x elapsed=0:02:18.27    \nframe=  526 fps=3.8 q=58.0 size=     512KiB time=00:00:04.38 bitrate= 956.9kbits/s speed=0.0316x elapsed=0:02:18.80    \nframe=  527 fps=3.8 q=53.0 size=     512KiB time=00:00:04.39 bitrate= 955.1kbits/s speed=0.0315x elapsed=0:02:19.33    \nframe=  529 fps=3.8 q=61.0 size=     512KiB time=00:00:04.40 bitrate= 951.4kbits/s speed=0.0315x elapsed=0:02:19.85    \nframe=  531 fps=3.8 q=54.0 size=     512KiB time=00:00:04.42 bitrate= 947.9kbits/s speed=0.0315x elapsed=0:02:20.38    \nframe=  533 fps=3.8 q=55.0 size=     512KiB time=00:00:04.44 bitrate= 944.3kbits/s speed=0.0315x elapsed=0:02:20.90    \nframe=  534 fps=3.8 q=56.0 size=     512KiB time=00:00:04.45 bitrate= 942.5kbits/s speed=0.0315x elapsed=0:02:21.42    \nframe=  536 fps=3.8 q=56.0 size=     512KiB time=00:00:04.46 bitrate= 939.0kbits/s speed=0.0315x elapsed=0:02:21.94    \nframe=  538 fps=3.8 q=55.0 size=     512KiB time=00:00:04.48 bitrate= 935.5kbits/s speed=0.0315x elapsed=0:02:22.46    \nframe=  540 fps=3.8 q=56.0 size=     512KiB time=00:00:04.50 bitrate= 932.1kbits/s speed=0.0315x elapsed=0:02:22.99    \nframe=  541 fps=3.8 q=54.0 size=     512KiB time=00:00:04.50 bitrate= 930.3kbits/s speed=0.0314x elapsed=0:02:23.52    \nframe=  543 fps=3.8 q=59.0 size=     512KiB time=00:00:04.52 bitrate= 926.9kbits/s speed=0.0314x elapsed=0:02:24.04    \nframe=  544 fps=3.8 q=53.0 size=     512KiB time=00:00:04.53 bitrate= 925.2kbits/s speed=0.0314x elapsed=0:02:24.56    \nframe=  546 fps=3.8 q=54.0 size=     512KiB time=00:00:04.55 bitrate= 921.8kbits/s speed=0.0314x elapsed=0:02:25.09    \nframe=  548 fps=3.8 q=55.0 size=     512KiB time=00:00:04.56 bitrate= 918.5kbits/s speed=0.0314x elapsed=0:02:25.61    \nframe=  549 fps=3.8 q=48.0 size=     512KiB time=00:00:04.57 bitrate= 916.8kbits/s speed=0.0313x elapsed=0:02:26.13    \nframe=  551 fps=3.8 q=53.0 size=     512KiB time=00:00:04.59 bitrate= 913.5kbits/s speed=0.0313x elapsed=0:02:26.65    \nframe=  553 fps=3.8 q=54.0 size=     512KiB time=00:00:04.60 bitrate= 910.2kbits/s speed=0.0313x elapsed=0:02:27.18    \nframe=  555 fps=3.8 q=56.0 size=     512KiB time=00:00:04.62 bitrate= 906.9kbits/s speed=0.0313x elapsed=0:02:27.71    \nframe=  556 fps=3.8 q=48.0 size=     512KiB time=00:00:04.63 bitrate= 905.2kbits/s speed=0.0313x elapsed=0:02:28.24    \nframe=  558 fps=3.8 q=53.0 size=     512KiB time=00:00:04.65 bitrate= 902.0kbits/s speed=0.0313x elapsed=0:02:28.77    \nframe=  560 fps=3.8 q=55.0 size=     512KiB time=00:00:04.66 bitrate= 898.8kbits/s speed=0.0313x elapsed=0:02:29.30    \nframe=  562 fps=3.8 q=56.0 size=     512KiB time=00:00:04.68 bitrate= 895.6kbits/s speed=0.0313x elapsed=0:02:29.83    \nframe=  564 fps=3.8 q=57.0 size=     512KiB time=00:00:04.70 bitrate= 892.4kbits/s speed=0.0313x elapsed=0:02:30.38    \nframe=  566 fps=3.8 q=55.0 size=     512KiB time=00:00:04.71 bitrate= 889.3kbits/s speed=0.0313x elapsed=0:02:30.92    \nframe=  568 fps=3.8 q=56.0 size=     512KiB time=00:00:04.73 bitrate= 886.1kbits/s speed=0.0313x elapsed=0:02:31.45    \nframe=  569 fps=3.7 q=55.0 size=     512KiB time=00:00:04.74 bitrate= 884.6kbits/s speed=0.0312x elapsed=0:02:31.98    \nframe=  571 fps=3.7 q=58.0 size=     512KiB time=00:00:04.75 bitrate= 881.5kbits/s speed=0.0312x elapsed=0:02:32.51    \nframe=  573 fps=3.7 q=54.0 size=     512KiB time=00:00:04.77 bitrate= 878.4kbits/s speed=0.0312x elapsed=0:02:33.05    \nframe=  575 fps=3.7 q=56.0 size=     512KiB time=00:00:04.79 bitrate= 875.3kbits/s speed=0.0312x elapsed=0:02:33.57    \nframe=  576 fps=3.7 q=57.0 size=     512KiB time=00:00:04.80 bitrate= 873.8kbits/s speed=0.0311x elapsed=0:02:34.13    \nframe=  576 fps=3.7 q=57.0 size=     512KiB time=00:00:04.80 bitrate= 873.8kbits/s speed=0.031x elapsed=0:02:34.67    \nframe=  576 fps=3.7 q=57.0 size=     512KiB time=00:00:04.80 bitrate= 873.8kbits/s speed=0.0309x elapsed=0:02:35.20    \nframe=  576 fps=3.7 q=57.0 size=     512KiB time=00:00:04.80 bitrate= 873.8kbits/s speed=0.0308x elapsed=0:02:35.73    \nframe=  576 fps=3.7 q=57.0 size=     512KiB time=00:00:04.80 bitrate= 873.8kbits/s speed=0.0307x elapsed=0:02:36.26    \nframe=  576 fps=3.7 q=57.0 size=     512KiB time=00:00:04.80 bitrate= 873.8kbits/s speed=0.0306x elapsed=0:02:36.78    \nframe=  576 fps=3.7 q=57.0 size=     512KiB time=00:00:04.80 bitrate= 873.8kbits/s speed=0.0305x elapsed=0:02:37.33    \nframe=  576 fps=3.6 q=57.0 size=     512KiB time=00:00:04.80 bitrate= 873.8kbits/s speed=0.0304x elapsed=0:02:37.87    \nframe=  576 fps=3.6 q=57.0 size=     512KiB time=00:00:04.80 bitrate= 873.8kbits/s speed=0.0303x elapsed=0:02:38.40    \nframe=  576 fps=3.6 q=57.0 size=     512KiB time=00:00:04.80 bitrate= 873.8kbits/s speed=0.0302x elapsed=0:02:38.93    \nframe=  576 fps=3.6 q=57.0 size=     512KiB time=00:00:04.80 bitrate= 873.8kbits/s speed=0.0301x elapsed=0:02:39.47    \nframe=  576 fps=3.6 q=57.0 size=     512KiB time=00:00:04.80 bitrate= 873.8kbits/s speed=0.03x elapsed=0:02:40.00    \nframe=  576 fps=3.6 q=57.0 size=     512KiB time=00:00:04.80 bitrate= 873.8kbits/s speed=0.0299x elapsed=0:02:40.55    \n[out#0/webm @ 000001e3d7628e00] video:742KiB audio:0KiB subtitle:0KiB other streams:0KiB global headers:0KiB muxing overhead: 0.635864%\nframe=  600 fps=3.7 q=52.0 Lsize=     747KiB time=00:00:05.00 bitrate=1224.1kbits/s speed=0.0311x elapsed=0:02:40.72    \n",
  "seconds": 161.65315008163452,
  "probe_out": {}
}